<?xml version="1.0" encoding="UTF-8" standalone="no"?>
<!DOCTYPE svg PUBLIC "-//W3C//DTD SVG 1.1//EN"
 "http://www.w3.org/Graphics/SVG/1.1/DTD/svg11.dtd">
<!-- Generated by graphviz version 2.47.0 (20210316.0004)
 -->
<!-- Title: dependencies Pages: 1 -->
<svg width="504pt" height="211pt"
 viewBox="0.00 0.00 504.00 211.00" xmlns="http://www.w3.org/2000/svg" xmlns:xlink="http://www.w3.org/1999/xlink">
<g id="graph0" class="graph" transform="scale(1 1) rotate(0) translate(4 207)">
<title>dependencies</title>
<polygon fill="white" stroke="transparent" points="-4,4 -4,-207 500,-207 500,4 -4,4"/>
<text text-anchor="start" x="227.01" y="-42.4" font-family="Times-12" font-weight="bold" font-size="14.00">Legend</text>
<polygon fill="#ffffb3" stroke="transparent" points="14,-10 14,-30 34,-30 34,-10 14,-10"/>
<text text-anchor="start" x="37.63" y="-15.4" font-family="Times-12" font-size="14.00"> &#160;Declarations</text>
<polygon fill="#8dd3c7" stroke="transparent" points="127,-10 127,-30 147,-30 147,-10 127,-10"/>
<text text-anchor="start" x="150.73" y="-15.4" font-family="Times-12" font-size="14.00"> &#160;Module</text>
<polygon fill="#80b1d3" stroke="transparent" points="213,-10 213,-30 233,-30 233,-10 213,-10"/>
<text text-anchor="start" x="236.78" y="-15.4" font-family="Times-12" font-size="14.00"> &#160;Bootstrap</text>
<polygon fill="#fdb462" stroke="transparent" points="310,-10 310,-30 330,-30 330,-10 310,-10"/>
<text text-anchor="start" x="333.67" y="-15.4" font-family="Times-12" font-size="14.00"> &#160;Providers</text>
<polygon fill="#fb8072" stroke="transparent" points="406,-10 406,-30 426,-30 426,-10 406,-10"/>
<text text-anchor="start" x="429.73" y="-15.4" font-family="Times-12" font-size="14.00"> &#160;Exports</text>
<g id="clust1" class="cluster">
<title>cluster_TemplateModule</title>
<polygon fill="none" stroke="black" stroke-dasharray="1,5" points="33,-70 33,-195 463,-195 463,-70 33,-70"/>
</g>
<g id="clust2" class="cluster">
<title>cluster_TemplateModule_declarations</title>
<polygon fill="none" stroke="black" points="41,-78 41,-130 455,-130 455,-78 41,-78"/>
</g>
<!-- FooterComponent -->
<g id="node1" class="node">
<title>FooterComponent</title>
<polygon fill="#ffffb3" stroke="black" points="446.88,-122 329.12,-122 329.12,-86 446.88,-86 446.88,-122"/>
<text text-anchor="middle" x="388" y="-99.8" font-family="Times,serif" font-size="14.00">FooterComponent</text>
</g>
<!-- TemplateModule -->
<g id="node4" class="node">
<title>TemplateModule</title>
<polygon fill="#8dd3c7" stroke="black" points="306.42,-187 303.42,-191 282.42,-191 279.42,-187 193.58,-187 193.58,-151 306.42,-151 306.42,-187"/>
<text text-anchor="middle" x="250" y="-164.8" font-family="Times,serif" font-size="14.00">TemplateModule</text>
</g>
<!-- FooterComponent&#45;&gt;TemplateModule -->
<g id="edge1" class="edge">
<title>FooterComponent&#45;&gt;TemplateModule</title>
<path fill="none" stroke="black" d="M388,-122.11C388,-141.34 388,-169 388,-169 388,-169 316.53,-169 316.53,-169"/>
<polygon fill="black" stroke="black" points="316.53,-165.5 306.53,-169 316.53,-172.5 316.53,-165.5"/>
</g>
<!-- HeaderComponent -->
<g id="node2" class="node">
<title>HeaderComponent</title>
<polygon fill="#ffffb3" stroke="black" points="310.74,-122 189.26,-122 189.26,-86 310.74,-86 310.74,-122"/>
<text text-anchor="middle" x="250" y="-99.8" font-family="Times,serif" font-size="14.00">HeaderComponent</text>
</g>
<!-- HeaderComponent&#45;&gt;TemplateModule -->
<g id="edge2" class="edge">
<title>HeaderComponent&#45;&gt;TemplateModule</title>
<path fill="none" stroke="black" d="M250,-122.11C250,-122.11 250,-140.99 250,-140.99"/>
<polygon fill="black" stroke="black" points="246.5,-140.99 250,-150.99 253.5,-140.99 246.5,-140.99"/>
</g>
<!-- NavbarComponent -->
<g id="node3" class="node">
<title>NavbarComponent</title>
<polygon fill="#ffffb3" stroke="black" points="171.03,-122 48.97,-122 48.97,-86 171.03,-86 171.03,-122"/>
<text text-anchor="middle" x="110" y="-99.8" font-family="Times,serif" font-size="14.00">NavbarComponent</text>
</g>
<!-- NavbarComponent&#45;&gt;TemplateModule -->
<g id="edge3" class="edge">
<title>NavbarComponent&#45;&gt;TemplateModule</title>
<path fill="none" stroke="black" d="M110,-122.11C110,-141.34 110,-169 110,-169 110,-169 183.46,-169 183.46,-169"/>
<polygon fill="black" stroke="black" points="183.46,-172.5 193.46,-169 183.46,-165.5 183.46,-172.5"/>
</g>
</g>
</svg>
